<svg id="SvgjsSvg1011" width="288" height="288" xmlns="http://www.w3.org/2000/svg" version="1.1" xmlns:xlink="http://www.w3.org/1999/xlink" xmlns:svgjs="http://svgjs.com/svgjs"><circle id="SvgjsCircle1024" r="144" cx="144" cy="144" fill="#f8c694" transform="matrix(0.01,0,0,0.01,142.56,142.56)"></circle><defs id="SvgjsDefs1012"></defs><g id="SvgjsG1013" transform="matrix(0.55,0,0,0.55,64.8,64.8)"><svg xmlns="http://www.w3.org/2000/svg" width="288" height="288" viewBox="0 0 48 48"><path d="M 24 0 C 10.751088 0 0 10.751088 0 24 C 0 37.248912 10.751088 48 24 48 C 37.248912 48 48 37.248912 48 24 C 48 10.751088 37.248912 0 24 0 z M 24 1 C 36.708472 1 47 11.291528 47 24 C 47 36.708472 36.708472 47 24 47 C 11.291528 47 1 36.708472 1 24 C 1 11.291528 11.291528 1 24 1 z M 30.53125 13.533203 C 29.49475 13.533203 28.458125 13.911968 27.703125 14.667969 L 27.349609 15.021484 C 27.255609 15.115484 27.203125 15.241999 27.203125 15.375 L 27.203125 16.289062 L 26.289062 16.289062 C 26.156063 16.289062 26.029547 16.342542 25.935547 16.435547 L 22.388672 19.982422 L 21.060547 21.396484 C 20.973547 21.489484 20.923828 21.611281 20.923828 21.738281 L 20.923828 22.738281 L 19.837891 22.738281 C 19.704891 22.738281 19.578375 22.791772 19.484375 22.884766 L 16.742188 25.626953 C 16.638188 25.730953 16.586656 25.87353 16.597656 26.019531 L 16.933594 30.384766 L 12.146484 35.173828 C 11.951484 35.368828 11.951484 35.685859 12.146484 35.880859 C 12.244484 35.978859 12.372 36.027344 12.5 36.027344 C 12.628 36.027344 12.755516 35.977863 12.853516 35.880859 L 17.642578 31.091797 L 22.007812 31.429688 C 22.020813 31.431687 22.031922 31.431641 22.044922 31.431641 C 22.176922 31.431641 22.306391 31.378161 22.400391 31.285156 L 23.814453 29.871094 C 23.908453 29.777094 23.958984 29.650577 23.958984 29.517578 L 23.958984 28.603516 L 24.873047 28.603516 C 25.006047 28.603516 25.134516 28.550036 25.228516 28.457031 L 28.763672 24.921875 C 28.857672 24.827875 28.910156 24.70136 28.910156 24.568359 L 28.910156 22.945312 L 30.53125 22.945312 C 30.66425 22.945312 30.790766 22.891822 30.884766 22.798828 L 33.359375 20.324219 C 34.115375 19.569219 34.53125 18.564094 34.53125 17.496094 C 34.53125 16.428094 34.115375 15.422969 33.359375 14.667969 C 32.604375 13.911969 31.56775 13.533203 30.53125 13.533203 z M 30.53125 14.525391 C 31.3085 14.525391 32.085844 14.808499 32.652344 15.375 C 33.218344 15.940999 33.53125 16.694095 33.53125 17.496094 C 33.53125 18.298094 33.218344 19.050187 32.652344 19.617188 L 32.460938 19.808594 L 29.177734 19.556641 L 31.238281 17.496094 C 31.433281 17.301094 31.433281 16.984063 31.238281 16.789062 C 31.043281 16.594062 30.72625 16.594062 30.53125 16.789062 L 28.470703 18.849609 L 28.449219 18.566406 C 28.428219 18.290406 28.173063 18.069469 27.914062 18.105469 C 27.639063 18.126469 27.432125 18.367578 27.453125 18.642578 L 27.541016 19.779297 L 26.349609 20.970703 L 26.095703 17.6875 L 26.496094 17.289062 L 27.703125 17.289062 C 27.979125 17.289062 28.203125 17.065062 28.203125 16.789062 L 28.203125 15.582031 L 28.410156 15.375 C 28.976653 14.8085 29.754 14.525391 30.53125 14.525391 z M 25.166016 18.619141 L 25.419922 21.902344 L 24.230469 23.091797 L 24.150391 22.052734 C 24.129391 21.776734 23.866281 21.550797 23.613281 21.591797 C 23.338281 21.612797 23.133297 21.853906 23.154297 22.128906 L 23.298828 24.023438 L 22.107422 25.212891 L 22.085938 24.929688 C 22.064937 24.653688 21.801828 24.42975 21.548828 24.46875 C 21.273828 24.48975 21.068844 24.730859 21.089844 25.005859 L 21.177734 26.144531 L 19.988281 27.333984 L 19.734375 24.050781 L 20.044922 23.738281 L 21.423828 23.738281 C 21.699828 23.738281 21.923828 23.514281 21.923828 23.238281 L 21.923828 21.9375 L 23.107422 20.677734 L 25.166016 18.619141 z M 28.248047 20.486328 L 31.53125 20.738281 L 30.324219 21.945312 L 28.410156 21.945312 C 28.134156 21.945312 27.910156 22.169313 27.910156 22.445312 L 27.910156 24.361328 L 26.097656 26.171875 L 22.814453 25.919922 L 24.003906 24.730469 L 25.898438 24.875 C 25.911438 24.877 25.9235 24.876953 25.9375 24.876953 C 26.1955 24.876953 26.414594 24.677063 26.433594 24.414062 C 26.454594 24.139063 26.247656 23.898905 25.972656 23.878906 L 24.935547 23.798828 L 28.248047 20.486328 z M 18.802734 24.982422 L 19.056641 28.265625 L 17.867188 29.455078 L 17.613281 26.171875 L 18.802734 24.982422 z M 21.882812 26.851562 L 25.166016 27.105469 L 24.666016 27.603516 L 23.458984 27.603516 C 23.182984 27.603516 22.958984 27.827516 22.958984 28.103516 L 22.958984 29.310547 L 21.855469 30.414062 L 18.572266 30.162109 L 19.761719 28.972656 L 21.474609 29.103516 C 21.487609 29.105516 21.499672 29.105469 21.513672 29.105469 C 21.771672 29.105469 21.990766 28.907533 22.009766 28.644531 C 22.030766 28.369532 21.825781 28.127421 21.550781 28.107422 L 20.693359 28.041016 L 21.882812 26.851562 z " fill="#ffffff" class="color000 svgShape"></path></svg></g></svg>