<svg xmlns="http://www.w3.org/2000/svg" id="Layer_1" x="0" y="0" enable-background="new 0 0 32 32" version="1.1" viewBox="0 0 32 32" xml:space="preserve"><path id="path5" fill="#000" stroke="none" d="M 23.53125 4.5058594 C 22.49475 4.5058594 21.458125 4.884625 20.703125 5.640625 L 20.349609 5.9941406 C 20.255609 6.0881406 20.203125 6.2146563 20.203125 6.3476562 L 20.203125 7.2617188 L 19.289062 7.2617188 C 19.156063 7.2617188 19.029547 7.3152028 18.935547 7.4082031 L 15.388672 10.955078 L 14.060547 12.369141 C 13.973547 12.462141 13.923828 12.583938 13.923828 12.710938 L 13.923828 13.710938 L 12.837891 13.710938 C 12.704891 13.710938 12.578375 13.764427 12.484375 13.857422 L 9.7421875 16.599609 C 9.6381875 16.703609 9.5866562 16.846187 9.5976562 16.992188 L 9.9335938 21.357422 L 5.1464844 26.146484 C 4.9514844 26.341484 4.9514844 26.658516 5.1464844 26.853516 C 5.2444844 26.951516 5.372 27 5.5 27 C 5.628 27 5.7555156 26.95052 5.8535156 26.853516 L 10.642578 22.064453 L 15.007812 22.402344 C 15.020812 22.404344 15.031922 22.404297 15.044922 22.404297 C 15.176922 22.404297 15.306391 22.350816 15.400391 22.257812 L 16.814453 20.84375 C 16.908453 20.74975 16.958984 20.623234 16.958984 20.490234 L 16.958984 19.576172 L 17.873047 19.576172 C 18.006047 19.576172 18.134516 19.522692 18.228516 19.429688 L 21.763672 15.894531 C 21.857672 15.800531 21.910156 15.674016 21.910156 15.541016 L 21.910156 13.917969 L 23.53125 13.917969 C 23.66425 13.917969 23.790766 13.864479 23.884766 13.771484 L 26.359375 11.296875 C 27.115375 10.541875 27.53125 9.53675 27.53125 8.46875 C 27.53125 7.40075 27.115375 6.395625 26.359375 5.640625 C 25.604375 4.884625 24.56775 4.5058594 23.53125 4.5058594 z M 23.53125 5.4980469 C 24.3085 5.4980469 25.085844 5.7811563 25.652344 6.3476562 C 26.218344 6.9136562 26.53125 7.66675 26.53125 8.46875 C 26.53125 9.27075 26.218344 10.022844 25.652344 10.589844 L 25.460938 10.78125 L 22.177734 10.529297 L 24.238281 8.46875 C 24.433281 8.27375 24.433281 7.9567188 24.238281 7.7617188 C 24.043281 7.5667187 23.72625 7.5667187 23.53125 7.7617188 L 21.470703 9.8222656 L 21.449219 9.5390625 C 21.428219 9.2630625 21.173063 9.042125 20.914062 9.078125 C 20.639063 9.099125 20.432125 9.3402344 20.453125 9.6152344 L 20.541016 10.751953 L 19.349609 11.943359 L 19.095703 8.6601562 L 19.496094 8.2617188 L 20.703125 8.2617188 C 20.979125 8.2617188 21.203125 8.0377187 21.203125 7.7617188 L 21.203125 6.5546875 L 21.410156 6.3476562 C 21.976656 5.7811563 22.754 5.4980469 23.53125 5.4980469 z M 18.166016 9.5917969 L 18.419922 12.875 L 17.230469 14.064453 L 17.150391 13.025391 C 17.129391 12.749391 16.866281 12.523453 16.613281 12.564453 C 16.338281 12.585453 16.133297 12.826562 16.154297 13.101562 L 16.298828 14.996094 L 15.107422 16.185547 L 15.085938 15.902344 C 15.064937 15.626344 14.801828 15.402406 14.548828 15.441406 C 14.273828 15.462406 14.068844 15.703516 14.089844 15.978516 L 14.177734 17.117188 L 12.988281 18.306641 L 12.734375 15.023438 L 13.044922 14.710938 L 14.423828 14.710938 C 14.699828 14.710938 14.923828 14.486938 14.923828 14.210938 L 14.923828 12.910156 L 16.107422 11.650391 L 18.166016 9.5917969 z M 21.248047 11.458984 L 24.53125 11.710938 L 23.324219 12.917969 L 21.410156 12.917969 C 21.134156 12.917969 20.910156 13.141969 20.910156 13.417969 L 20.910156 15.333984 L 19.097656 17.144531 L 15.814453 16.892578 L 17.003906 15.703125 L 18.898438 15.847656 C 18.911438 15.849656 18.9235 15.849609 18.9375 15.849609 C 19.1955 15.849609 19.414594 15.649719 19.433594 15.386719 C 19.454594 15.111719 19.247656 14.871561 18.972656 14.851562 L 17.935547 14.771484 L 21.248047 11.458984 z M 11.802734 15.955078 L 12.056641 19.238281 L 10.867188 20.427734 L 10.613281 17.144531 L 11.802734 15.955078 z M 14.882812 17.824219 L 18.166016 18.078125 L 17.666016 18.576172 L 16.458984 18.576172 C 16.182984 18.576172 15.958984 18.800172 15.958984 19.076172 L 15.958984 20.283203 L 14.855469 21.386719 L 11.572266 21.134766 L 12.761719 19.945312 L 14.474609 20.076172 C 14.487609 20.078172 14.499672 20.078125 14.513672 20.078125 C 14.771672 20.078125 14.990766 19.880189 15.009766 19.617188 C 15.030766 19.342188 14.825781 19.100078 14.550781 19.080078 L 13.693359 19.013672 L 14.882812 17.824219 z "/></svg>